<svg width="600" height="400" viewBox="0 0 600 400" fill="none" xmlns="http://www.w3.org/2000/svg">
  <!-- Background -->
  <rect width="600" height="400" fill="#FFFFFF"/>
  
  <!-- Decorative elements -->
  <circle cx="300" cy="200" r="150" fill="#EEF2FF" />
  <circle cx="300" cy="200" r="100" fill="#E0E7FF" />
  
  <!-- Stylized headset icon -->
  <path d="M250 180C250 146.863 276.863 120 310 120C343.137 120 370 146.863 370 180V240C370 273.137 343.137 300 310 300" stroke="#4F46E5" stroke-width="12" stroke-linecap="round"/>
  <rect x="230" y="200" width="40" height="80" rx="20" fill="#4F46E5"/>
  <rect x="350" y="200" width="40" height="80" rx="20" fill="#4F46E5"/>
  
  <!-- Speech bubbles -->
  <path d="M180 160H140C131.716 160 125 166.716 125 175V205C125 213.284 131.716 220 140 220H150L160 235L170 220H180C188.284 220 195 213.284 195 205V175C195 166.716 188.284 160 180 160Z" fill="#818CF8"/>
  <path d="M460 240H420C411.716 240 405 246.716 405 255V285C405 293.284 411.716 300 420 300H430L440 315L450 300H460C468.284 300 475 293.284 475 285V255C475 246.716 468.284 240 460 240Z" fill="#818CF8"/>
</svg> 